# xmcd
#
# Track frame offsets:
#	150
#	13186
#	28452
#	41942
#	60523
#	80829
#	93559
#	110636
#	126449
#	145253
#	155504
#	166468
#
# Disc length: 2480 seconds
#
# Revision: 1
# Processed by: cddbd v1.5.1PL2 Copyright (c) Steve Scherf et al.
# Submitted via: audiograbber 1.83.01
#
DISCID=b209ae0c
DTITLE=Texas Lightning - Meanwhile, Back At The Ranch
DYEAR=2006
DGENRE=Country
TTITLE0=Bad Case Of Loving You
TTITLE1=Like A Virgin
TTITLE2=No No Never
TTITLE3=Kiss
TTITLE4=Over The Mountains
TTITLE5=C'est La Vie
TTITLE6=Highway To Hell
TTITLE7=Dancing Queen
TTITLE8=Man In The Mirror
TTITLE9=Norwegian Wood
TTITLE10=Raindrops Kepp Falling On My Head
TTITLE11=Blue Bayou
EXTD=
EXTT0=
EXTT1=
EXTT2=
EXTT3=
EXTT4=
EXTT5=
EXTT6=
EXTT7=
EXTT8=
EXTT9=
EXTT10=
EXTT11=
PLAYORDER=
